{
  "accessors": [
    {
      "bufferView": 2,
      "componentType": 5126,
      "count": 660,
      "max": [
        73.77677917480469,
        341.70782470703125,
        250.44154357910156
      ],
      "min": [
        -73.77677917480469,
        -351.8364562988281,
        -71.75513458251953
      ],
      "type": "VEC3"
    },
    {
      "bufferView": 2,
      "byteOffset": 7920,
      "componentType": 5126,
      "count": 660,
      "max": [
        0.9287289381027222,
        0.9924314618110657,
        0.9277051687240601
      ],
      "min": [
        -0.9764144420623779,
        -0.9804103374481201,
        -0.9271311163902283
      ],
      "type": "VEC3"
    },
    {
      "bufferView": 1,
      "componentType": 5126,
      "count": 660,
      "max": [
        1.25,
        0.9979737997055054
      ],
      "min": [
        0.0434136800467968,
        0.0022869110107421875
      ],
      "type": "VEC2"
    },
    {
      "bufferView": 0,
      "componentType": 5125,
      "count": 768,
      "type": "SCALAR"
    },
    {
      "bufferView": 2,
      "byteOffset": 15840,
      "componentType": 5126,
      "count": 56,
      "max": [
        21.76567840576172,
        341.70782470703125,
        187.34048461914063
      ],
      "min": [
        -21.76567840576172,
        303.40875244140625,
        166.59930419921875
      ],
      "type": "VEC3"
    },
    {
      "bufferView": 2,
      "byteOffset": 16512,
      "componentType": 5126,
      "count": 56,
      "max": [
        0.4581349790096283,
        0.7923198342323303,
        0.9802887439727783
      ],
      "min": [
        -0.4581349790096283,
        -0.011581875383853912,
        0.5848918557167053
      ],
      "type": "VEC3"
    },
    {
      "bufferView": 1,
      "byteOffset": 5280,
      "componentType": 5126,
      "count": 56,
      "max": [
        0.7694794535636902,
        0.8556027412414551
      ],
      "min": [
        0.7305205464363098,
        0.8239631652832031
      ],
      "type": "VEC2"
    },
    {
      "bufferView": 0,
      "byteOffset": 3072,
      "componentType": 5125,
      "count": 72,
      "type": "SCALAR"
    },
    {
      "bufferView": 2,
      "byteOffset": 17184,
      "componentType": 5126,
      "count": 24,
      "max": [
        22.288469314575195,
        -311.8323059082031,
        250.44154357910156
      ],
      "min": [
        -22.288469314575195,
        -351.8364562988281,
        215.78878784179688
      ],
      "type": "VEC3"
    },
    {
      "bufferView": 2,
      "byteOffset": 17472,
      "componentType": 5126,
      "count": 24,
      "max": [
        0.863091766834259,
        -0.004801101516932249,
        0.9326355457305908
      ],
      "min": [
        -0.44883543252944946,
        -0.8689039945602417,
        0.20321661233901978
      ],
      "type": "VEC3"
    },
    {
      "bufferView": 1,
      "byteOffset": 5728,
      "componentType": 5126,
      "count": 24,
      "max": [
        0.7659236788749695,
        0.21538305282592773
      ],
      "min": [
        0.7352127432823181,
        0.18092775344848633
      ],
      "type": "VEC2"
    },
    {
      "bufferView": 0,
      "byteOffset": 3360,
      "componentType": 5125,
      "count": 24,
      "type": "SCALAR"
    }
  ],
  "asset": {
    "extras": {
      "author": "Micx Vi (https://sketchfab.com/micx64rus)",
      "license": "CC-BY-4.0 (http://creativecommons.org/licenses/by/4.0/)",
      "source": "https://sketchfab.com/3d-models/banana-1b6f7a19b53c4f50ad4e24620e594dbd",
      "title": "Banana (Банан)"
    },
    "generator": "Sketchfab-12.66.0",
    "version": "2.0"
  },
  "bufferViews": [
    {
      "buffer": 0,
      "byteLength": 3456,
      "name": "floatBufferViews",
      "target": 34963
    },
    {
      "buffer": 0,
      "byteLength": 5920,
      "byteOffset": 3456,
      "byteStride": 8,
      "name": "floatBufferViews",
      "target": 34962
    },
    {
      "buffer": 0,
      "byteLength": 17760,
      "byteOffset": 9376,
      "byteStride": 12,
      "name": "floatBufferViews",
      "target": 34962
    }
  ],
  "buffers": [
    {
      "byteLength": 27136,
      "uri": "scene.bin"
    }
  ],
  "extensionsRequired": [
    "KHR_materials_pbrSpecularGlossiness"
  ],
  "extensionsUsed": [
    "KHR_materials_pbrSpecularGlossiness"
  ],
  "materials": [
    {
      "doubleSided": true,
      "extensions": {
        "KHR_materials_pbrSpecularGlossiness": {
          "diffuseFactor": [
            0.75,
            0.668625,
            0.0525,
            1.0
          ],
          "glossinessFactor": 0.0475682846,
          "specularFactor": [
            0.0,
            0.0,
            0.0
          ]
        }
      },
      "name": "material"
    },
    {
      "doubleSided": true,
      "extensions": {
        "KHR_materials_pbrSpecularGlossiness": {
          "diffuseFactor": [
            0.16038907764825955,
            0.087278546156829,
            0.005225365257414028,
            1.0
          ],
          "glossinessFactor": 0.0475682846,
          "specularFactor": [
            0.0,
            0.0,
            0.0
          ]
        }
      },
      "name": "Mat.1"
    }
  ],
  "meshes": [
    {
      "name": "Cylinder_Mat_0",
      "primitives": [
        {
          "attributes": {
            "NORMAL": 1,
            "POSITION": 0,
            "TEXCOORD_0": 2
          },
          "indices": 3,
          "material": 0,
          "mode": 4
        }
      ]
    },
    {
      "name": "Cylinder_2_Mat.1_0",
      "primitives": [
        {
          "attributes": {
            "NORMAL": 5,
            "POSITION": 4,
            "TEXCOORD_0": 6
          },
          "indices": 7,
          "material": 1,
          "mode": 4
        }
      ]
    },
    {
      "name": "Cylinder_1_Mat.1_0",
      "primitives": [
        {
          "attributes": {
            "NORMAL": 9,
            "POSITION": 8,
            "TEXCOORD_0": 10
          },
          "indices": 11,
          "material": 1,
          "mode": 4
        }
      ]
    }
  ],
  "nodes": [
    {
      "children": [
        1
      ],
      "matrix": [
        0.0011560881976038218,
        0.0,
        0.0,
        0.0,
        0.0,
        2.5670314709543213e-19,
        -0.0011560881976038218,
        0.0,
        0.0,
        0.0011560881976038218,
        2.5670314709543213e-19,
        0.0,
        0.0,
        4.263256414560601e-14,
        9.466330862652142e-30,
        1.0
      ],
      "name": "Sketchfab_model"
    },
    {
      "children": [
        2
      ],
      "matrix": [
        1.0,
        0.0,
        0.0,
        0.0,
        0.0,
        0.0,
        1.0,
        0.0,
        0.0,
        -1.0,
        0.0,
        0.0,
        0.0,
        0.0,
        0.0,
        1.0
      ],
      "name": "bedbce499be547c5aca0769605a27634.fbx"
    },
    {
      "children": [
        3,
        5,
        7
      ],
      "name": "RootNode"
    },
    {
      "children": [
        4
      ],
      "matrix": [
        1.0,
        0.0,
        0.0,
        0.0,
        0.0,
        2.220446049250313e-16,
        -1.0,
        0.0,
        0.0,
        1.0,
        2.220446049250313e-16,
        0.0,
        0.0,
        -102.36241149902344,
        -7.677180767059326,
        1.0
      ],
      "name": "Cylinder"
    },
    {
      "mesh": 0,
      "name": "Cylinder_Mat_0"
    },
    {
      "children": [
        6
      ],
      "matrix": [
        1.0,
        0.0,
        0.0,
        0.0,
        0.0,
        2.220446049250313e-16,
        -1.0,
        0.0,
        0.0,
        1.0,
        2.220446049250313e-16,
        0.0,
        0.0,
        -102.36241149902344,
        -7.677180767059326,
        1.0
      ],
      "name": "Cylinder_2"
    },
    {
      "mesh": 1,
      "name": "Cylinder_2_Mat.1_0"
    },
    {
      "children": [
        8
      ],
      "matrix": [
        1.0,
        0.0,
        0.0,
        0.0,
        0.0,
        2.220446049250313e-16,
        -1.0,
        0.0,
        0.0,
        1.0,
        2.220446049250313e-16,
        0.0,
        0.0,
        -102.36241149902344,
        -7.677180767059326,
        1.0
      ],
      "name": "Cylinder_1"
    },
    {
      "mesh": 2,
      "name": "Cylinder_1_Mat.1_0"
    }
  ],
  "scene": 0,
  "scenes": [
    {
      "name": "Sketchfab_Scene",
      "nodes": [
        0
      ]
    }
  ]
}
